<svg width="80" height="28" viewBox="0 0 80 28" fill="none" xmlns="http://www.w3.org/2000/svg">
<path fill-rule="evenodd" clip-rule="evenodd" d="M78.4787 21.3933L79.9972 25.8343L80 25.8329C78.5126 26.6529 77.0238 26.9145 75.2579 26.9922C75.2565 26.9908 75.2536 26.9894 75.2536 26.988C74.6428 27.0516 73.9896 27.0502 73.3067 26.9442C71.2952 26.6334 69.8764 25.5718 69.0672 24.9664L69.0651 24.9647C67.5438 23.8252 66.6134 22.5484 66.096 21.7128C65.0695 22.6191 63.7136 23.647 62 24.5689C59.2061 26.0718 56.6018 26.6798 54.7849 26.9442V21.7128C55.9641 21.4979 57.6495 21.0455 59.4507 20.0162C62.0777 18.5146 63.6273 16.5451 64.3993 15.3928V15.1227H55.9033V6.64089H54.4131V2.0571C55.8171 2.11507 57.1065 2.02882 58.396 1.9143C59.5683 1.79098 60.674 1.61958 61.7134 1.45847C63.5698 1.17071 65.2143 0.915802 66.6474 1.02638C69.8272 1.25543 70.7731 2.91674 70.8876 5.7247C70.9611 7.50975 70.5974 9.88547 70.2745 11.9944C70.0945 13.1694 69.9273 14.2617 69.8555 15.1227L69.813 15.8226C69.7074 17.5492 70.7023 18.876 71.235 19.5865C71.2655 19.6271 71.2945 19.6657 71.3216 19.7023C71.4031 19.8121 71.4759 19.9132 71.544 20.0078C71.7883 20.347 71.9726 20.6031 72.2788 20.8772C73.1625 21.6662 74.107 21.915 74.435 21.997C76.3847 22.4848 78.0446 21.6322 78.4787 21.3933ZM60.7727 10.6832H65.4427H65.4442C65.4651 10.5941 65.4867 10.5034 65.5087 10.4113C65.7275 9.49498 65.9806 8.43458 65.9023 7.44539C65.7877 6.06968 65.1571 5.81236 63.896 5.72611C63.2057 5.68484 62.6374 5.81072 61.8131 5.9933C61.5078 6.06093 61.1674 6.13633 60.7727 6.2139V10.6832ZM78.2511 1.1123H72.9504V18.7052H78.2511V1.1123ZM36.0171 9.93782H28.0231V23.8348H29.7706C34.4986 23.8348 40.7451 22.6599 44.3265 20.6253V26.9001H49.7699V15.1522H52.8352V10.1386H49.7699V1.14209H44.3265V15.5537C41.5751 17.1868 35.8743 18.3037 33.3237 18.4183V14.5796H41.3178V2.40185H28.0231V7.12986H36.0171V9.93782ZM0 19.6231V24.4939H16.2737C16.7804 24.4939 17.264 24.4976 17.7275 24.5012H17.7275H17.7275C20.8816 24.5258 23.1044 24.543 25.3282 23.3189L23.8097 18.8779C22.1484 19.5368 19.8848 19.6231 17.5066 19.6231H0ZM2.37814 2.74561V7.47361H16.0447C16.0744 9.45021 15.9019 13.1758 15.0422 17.416L20.3146 18.1894C21.2308 14.321 21.4881 8.99212 21.5461 5.89714L21.604 2.74561H2.37814Z" fill="#26B5BE"/>
</svg>
