<svg width="134" height="40" viewBox="0 0 134 40" fill="none" xmlns="http://www.w3.org/2000/svg">
<g clip-path="url(#clip0_2358_20786)">
<path d="M23.0041 7.40541C23.0041 7.40541 15.5461 3.94041 10.3431 9.01141C7.29607 11.6954 7.20807 16.7884 9.10007 20.0004C11.2891 23.7184 15.3261 24.4774 15.3261 24.4774L13.6981 26.6664C11.2891 24.8954 8.34107 28.1844 11.0361 30.3294C12.1471 31.1544 14.8861 33.1234 14.8861 33.1234L20.0005 25.5L23.2901 28.2174C20.5401 27.1504 19.3081 30.4614 21.6841 31.8034L25.9741 33.7504L29.7141 25.8414L32.7281 29.4714C29.9891 31.2424 32.3981 35.1804 35.4781 33.0574L38.5911 29.7244L34.3121 24.4774H38.2501L39.6031 23.3884C41.7921 21.4194 40.4721 18.5814 38.3271 19.0654C37.4251 19.2744 37.0071 19.8794 37.0071 19.8794L35.0711 17.2944C35.0711 17.2944 38.0301 16.7444 38.9211 14.5994C39.8121 12.4544 39.8011 11.0464 39.4821 9.89141C39.1631 8.73641 38.2501 7.53741 36.5231 7.05341C34.7961 6.56941 33.0581 6.64641 33.0581 6.64641H25.6881L24.0601 15.9084L22.9601 16.1614C22.9601 16.1614 22.9381 16.7444 22.5201 17.2284C22.1021 17.7124 20.9911 18.1084 19.5831 17.6904C18.1751 17.2724 17.6251 15.6004 17.8561 14.3464C18.0761 13.1474 18.5821 12.2234 19.8251 12.0144C19.8251 12.0144 20.7711 11.7394 21.6621 12.2124L23.0041 7.41641V7.40541Z" fill="#DFF9FA"/>
<path d="M23.0692 28.424L24.7522 24.5823L25.3902 23.3803L28.6022 22.5716L26.7542 15.0903L23.7732 15.8204L25.4012 6.36214H32.7712C32.7712 6.36214 34.4982 6.27227 36.2362 6.77777C37.9742 7.28326 38.8762 8.50767 39.2062 9.67591C39.5252 10.8554 39.5362 12.2932 38.6452 14.4837C37.7542 16.6629 34.7952 17.2358 34.7952 17.2358L36.7312 19.8756C36.7312 19.8756 37.1492 19.2578 38.0512 19.0443C40.1962 18.5389 41.5162 21.4482 39.3272 23.459L37.9742 24.5598H34.0362L38.3152 29.9293L35.2022 33.3329C32.1112 35.5009 29.7132 31.4794 32.4522 29.6709L29.4382 25.964L25.6982 34.0406L21.4082 32.0523C19.0322 30.6819 20.2752 27.3119 23.0142 28.3903L23.0692 28.4128V28.424Z" fill="white"/>
<path d="M22.7283 7.17257C22.7283 7.17257 15.2703 3.63413 10.0673 8.81261C7.02028 11.5535 6.93228 16.7544 8.82428 20.0345C11.0133 23.8313 15.2703 24.6064 15.2703 24.6064L13.4223 27.2911C10.8593 25.0557 8.06528 28.4032 10.7603 30.5937C11.8713 31.4361 14.6103 33.4469 14.6103 33.4469L20.0553 25.3815L23.2233 28.4369C20.6933 27.0665 19.0213 30.7285 21.3973 32.0989L25.6873 33.8625L29.2073 25.5724L32.6613 29.7287C29.9223 31.5372 32.1113 35.5587 35.2023 33.3907L38.0953 29.9871L33.8163 24.6289H37.9743L39.3273 23.5168C41.5163 21.5061 40.1963 18.6079 38.0513 19.1022C37.1493 19.3156 36.7313 19.9334 36.7313 19.9334L34.7953 17.2936C34.7953 17.2936 37.7543 16.732 38.6453 14.5415C39.5363 12.351 39.5253 10.9132 39.2063 9.73372C38.8873 8.55425 37.9743 7.32983 36.2473 6.83558C34.5203 6.34132 32.7823 6.41995 32.7823 6.41995H25.4123L23.7843 15.8782L22.6843 16.1366C22.6843 16.1366 22.6623 16.732 22.2443 17.2262C21.8263 17.7205 20.7153 18.1249 19.3073 17.698C17.8993 17.2712 17.3493 15.5637 17.5803 14.2831C17.8003 13.0587 18.3063 12.1151 19.5493 11.9017C19.5493 11.9017 20.4953 11.6209 21.3863 12.1039L22.7283 7.20627V7.17257Z" stroke="#26B5BE" stroke-width="1.25" stroke-linejoin="round"/>
<path d="M25.1718 23.606L23.1808 28.5036" stroke="#26B5BE" stroke-width="1.25" stroke-miterlimit="10"/>
<path d="M24.2346 20.0671C20.7146 20.3255 20.9236 24.2458 24.0476 23.7516L28.6016 22.6058L26.7536 15.1245L23.7726 15.8547L22.6726 16.113" stroke="#26B5BE" stroke-width="1.25" stroke-miterlimit="10"/>
</g>
<path fill-rule="evenodd" clip-rule="evenodd" d="M91.7724 28.8883C88.1684 29.7174 81.0534 30.2927 75.7319 30.0642V16.6549H84.6236V13.3977H75.7319V8.47385H90.3173V21.4518H81.4002V24.9966C84.5136 24.9966 88.5491 24.7428 91.2902 24.1421L91.7724 28.8883ZM93.1514 32.8307V7.78857H98.9551V16.5956H101.442V21.7394H98.9551V32.8307H93.1514ZM48 30.7746V25.8846H64.5312C65.1911 22.0775 65.5887 17.5344 65.5887 13.2197H49.7766V8.32973H71.477V12.306C71.477 16.6207 70.9356 22.1114 70.3011 25.8846H73.279V30.7746H48ZM103.042 8.22004V21.3672V21.3756H118.338V8.22004H103.042ZM115.682 28.2961C117.425 30.3519 122.315 32.6108 125.487 33.0676L128 28.6345C123.618 27.78 118.846 25.978 118.846 23.1438V22.7969H112.501V23.1438C112.501 25.978 107.103 28.093 103.068 28.9221L105.758 33.2114C108.652 32.7546 113.88 30.4957 115.682 28.2961ZM108.736 12.8224H112.653V16.7733H108.736V12.8224ZM120.86 7.78857V23.0846H126.663V7.78857H120.86Z" fill="#26B5BE"/>
<defs>
<clipPath id="clip0_2358_20786">
<rect width="34.529" height="29.7004" fill="white" transform="translate(6.7355 5.1499)"/>
</clipPath>
</defs>
</svg>
