<svg width="22" height="21" viewBox="0 0 22 21" fill="none" xmlns="http://www.w3.org/2000/svg">
<g clip-path="url(#clip0_3218_24602)">
<path d="M10.01 19.5C9.57001 19.5 9.12001 19.47 8.68001 19.4C3.77001 18.68 0.370005 14.09 1.10001 9.18C1.75001 4.8 5.57001 1.5 9.99001 1.5C10.43 1.5 10.88 1.53 11.32 1.6C16.23 2.33 19.63 6.91 18.9 11.82C18.25 16.2 14.43 19.5 10.01 19.5Z" fill="white"/>
<path d="M9.99001 2.5C10.38 2.5 10.78 2.53 11.17 2.59C13.28 2.9 15.15 4.02 16.42 5.74C17.69 7.46 18.22 9.57 17.91 11.68C17.33 15.57 13.94 18.51 10.01 18.51C9.62001 18.51 9.22001 18.48 8.83001 18.42C6.72001 18.11 4.85001 16.99 3.58001 15.27C2.31001 13.55 1.78001 11.44 2.09001 9.33C2.67001 5.44 6.06001 2.5 9.99001 2.5ZM9.99001 0.5C5.11001 0.5 0.850008 4.07 0.110008 9.04C-0.699992 14.5 3.07001 19.59 8.54001 20.4C9.04001 20.47 9.53001 20.51 10.02 20.51C14.89 20.51 19.16 16.94 19.9 11.97C20.7 6.5 16.93 1.42 11.47 0.61C10.97 0.54 10.48 0.5 9.99001 0.5Z" fill="#26B5BE"/>
<path d="M16.62 14.2C13.68 14.41 13.77 18.01 16.37 17.6L20.17 16.66L18.63 10.55L16.14 11.15L15.22 11.36" fill="white"/>
<path d="M16.62 14.2C13.68 14.41 13.77 18.01 16.37 17.6L20.17 16.66L18.63 10.55L16.14 11.15L15.22 11.36" stroke="#26B5BE" stroke-width="1.5" stroke-linejoin="round"/>
<path d="M13.36 7.61015C13.36 8.33015 13.25 9.12015 13 9.94015C12.27 12.3501 10.65 14.0001 9.39 13.6201C8.78 13.4401 8.37 12.8101 8.19 11.9301C8.7 11.2801 9.16 10.4201 9.46 9.42015C9.67 8.72015 9.79 8.03015 9.81 7.40015C10.88 7.61015 12.06 7.68015 13.36 7.61015Z" fill="white"/>
<path d="M13.36 7.61004C12.06 7.68004 10.88 7.61004 9.80999 7.40004C9.82999 6.91004 9.79999 6.45004 9.70999 6.05004C10.44 5.13004 11.3 4.66004 12.04 4.88004C12.87 5.13004 13.35 6.21004 13.36 7.61004Z" fill="#26B5BE"/>
<path d="M9.70998 6.05005C9.79998 6.45005 9.82998 6.91005 9.80998 7.40005C9.51998 7.35005 9.24998 7.29005 8.97998 7.22005C9.18998 6.78005 9.43998 6.38005 9.70998 6.05005Z" fill="white"/>
<path d="M9.81 7.40022C9.79 8.03022 9.67 8.72022 9.46 9.42022C9.16 10.4202 8.7 11.2802 8.19 11.9302C8 11.0102 8.06 9.80022 8.44 8.56022C8.59 8.08022 8.77 7.63021 8.98 7.22021C9.25 7.29021 9.52 7.35022 9.81 7.40022Z" fill="white"/>
<path d="M9.70998 6.05009C9.43998 6.38009 9.18998 6.78009 8.97998 7.22009C7.82998 6.92009 6.82998 6.44009 5.97998 5.79009C6.74998 4.70009 7.69998 4.12009 8.50998 4.36009C9.11998 4.54009 9.53998 5.17009 9.70998 6.05009Z" fill="#26B5BE"/>
<path d="M8.97999 7.22004C8.76999 7.63004 8.58999 8.08004 8.43999 8.56004C8.05999 9.80004 7.99999 11.01 8.18999 11.93C7.45999 12.85 6.59999 13.32 5.85999 13.1C4.59999 12.71 4.16999 10.45 4.90999 8.04004C5.16999 7.17004 5.54999 6.40004 5.97999 5.79004C6.82999 6.44004 7.82999 6.92004 8.97999 7.22004Z" fill="white"/>
<path d="M8.18999 11.9301C7.45999 12.8501 6.59999 13.3201 5.85999 13.1001C4.59999 12.7101 4.16999 10.4501 4.90999 8.04009C5.16999 7.17009 5.54999 6.40009 5.97999 5.79009C6.74999 4.70009 7.69999 4.12009 8.50999 4.36009C9.11999 4.54009 9.53999 5.17009 9.70999 6.05009" stroke="#26B5BE" stroke-miterlimit="10"/>
<path d="M13.36 7.61004C13.36 8.33004 13.25 9.12004 13 9.94004C12.27 12.35 10.65 14 9.39 13.62C8.78 13.44 8.37 12.81 8.19 11.93C8 11.01 8.06 9.80004 8.44 8.56004C8.59 8.08004 8.77 7.63004 8.98 7.22004C9.19 6.78004 9.44 6.38004 9.71 6.05004C10.44 5.13004 11.3 4.66004 12.04 4.88004C12.87 5.13004 13.35 6.21004 13.36 7.61004Z" stroke="#26B5BE" stroke-miterlimit="10"/>
<path d="M13.4 7.61003H13.36C12.06 7.68003 10.88 7.61003 9.81 7.40003C9.52 7.35003 9.25 7.29003 8.98 7.22003C7.83 6.92003 6.83 6.44003 5.98 5.79003C5.19 5.19003 4.53 4.43003 4 3.53003" stroke="#26B5BE" stroke-miterlimit="10"/>
<path d="M10.82 7.62988C10.82 7.62988 9.1 12.3699 12.27 11.7399L13.27 7.73988L10.82 7.62988Z" fill="#26B5BE"/>
<path d="M7 6.5C7 6.5 4.78001 11.2563 7.68001 10.4163L8.60535 7.5963L7 6.5Z" fill="black"/>
<path d="M10.5 7.73999C10.5 7.73999 8.5 12.5 11.95 11.85L13.27 7.74004L10.5 7.73999Z" fill="black"/>
<path d="M9.70999 6.06005C10.44 5.14005 11.3 4.67005 12.04 4.89005C12.87 5.14005 13.33 6.22005 13.35 7.62005C12.05 7.69005 10.87 7.62005 9.80999 7.41005C9.82999 6.92005 9.80999 6.46005 9.70999 6.06005Z" fill="#26B5BE"/>
<path d="M9.71 6.06006C9.8 6.46006 9.83 6.92006 9.81 7.41006C9.52 7.36006 9.24 7.30006 8.97 7.23006C9.19 6.79006 9.44 6.39006 9.71 6.06006Z" fill="#26B5BE"/>
<path d="M9.80999 7.41022C9.78999 8.04022 9.66999 8.73022 9.45999 9.43022C9.15999 10.4302 8.69999 11.3002 8.17999 11.9402C7.98999 11.0102 8.04999 9.81022 8.42999 8.57022C8.57999 8.09022 8.75999 7.64022 8.96999 7.23022C9.23999 7.30022 9.51999 7.36022 9.80999 7.41022Z" fill="white"/>
<path d="M8.5 4.3701C9.11 4.5501 9.53 5.1801 9.71 6.0601C9.44 6.3901 9.19 6.7901 8.97 7.2301C7.82 6.9201 6.82 6.4501 5.97 5.8001C6.74 4.7101 7.69 4.1301 8.5 4.3701Z" fill="#26B5BE"/>
<path d="M8.17999 11.9401C7.44999 12.8501 6.58999 13.3201 5.85999 13.1001C4.59999 12.7201 4.16999 10.4601 4.89999 8.0401C5.15999 7.1701 5.53999 6.4101 5.96999 5.8001C6.73999 4.7101 7.68999 4.1301 8.49999 4.3701C9.10999 4.5501 9.52999 5.1801 9.70999 6.0601" stroke="#26B5BE" stroke-miterlimit="10"/>
<path d="M13.35 7.62005C13.35 8.33005 13.24 9.13005 12.99 9.95005C12.26 12.36 10.65 14.01 9.38999 13.63C8.77999 13.45 8.35999 12.82 8.17999 11.94C7.98999 11.01 8.04999 9.81005 8.42999 8.57005C8.57999 8.09005 8.75999 7.64005 8.96999 7.23005C9.18999 6.79005 9.43999 6.39005 9.70999 6.06005C10.44 5.14005 11.3 4.67005 12.04 4.89005C12.87 5.14005 13.33 6.22005 13.35 7.62005Z" stroke="#26B5BE" stroke-miterlimit="10"/>
<path d="M13.39 7.62004H13.35C12.05 7.69004 10.87 7.62004 9.81 7.41004C9.52 7.36004 9.24 7.30004 8.97 7.23004C7.82 6.92004 6.82 6.45004 5.97 5.80004C5.18 5.19004 4.53 4.44004 4 3.54004" stroke="#26B5BE" stroke-miterlimit="10"/>
</g>
<defs>
<clipPath id="clip0_3218_24602">
<rect width="21.17" height="20" fill="white" transform="translate(0 0.5)"/>
</clipPath>
</defs>
</svg>
